<?xml version="1.0" encoding="UTF-8"?>
<svg width="200" height="60" viewBox="0 0 200 60" fill="none" xmlns="http://www.w3.org/2000/svg">
  <!-- Official Allianz logo with clean background -->
  <defs>
    <style>
      .allianz-blue { fill: #003781; }
    </style>
  </defs>
  
  <!-- Allianz text -->
  <g class="allianz-blue">
    <!-- A -->
    <path d="M15 45L20 20h8l15 25h-8l-2-4h-12l-2 4h-4zm8-12h8l-4-8z"/>
    <!-- l -->
    <rect x="43" y="15" width="4" height="30"/>
    <!-- l -->
    <rect x="50" y="15" width="4" height="30"/>
    <!-- i -->
    <rect x="57" y="25" width="4" height="20"/>
    <circle cx="59" cy="20" r="2"/>
    <!-- a -->
    <path d="M65 35c0-5 3-8 8-8s8 3 8 8v10h-4v-2c-1 2-3 3-6 3-3 0-5-2-5-5s2-5 5-5h6v-1c0-2-1-3-3-3s-3 1-3 3h-4zm12 6v-2h-5c-1 0-2 1-2 2s1 2 2 2 3-1 5-2z"/>
    <!-- n -->
    <path d="M85 45V25h4v3c1-2 3-4 7-4 4 0 6 3 6 7v14h-4V31c0-2-1-3-3-3s-4 1-4 3v14h-4z"/>
    <!-- z -->
    <path d="M105 45v-3l10-13h-10v-4h16v3l-10 13h10v4h-16z"/>
  </g>
  
  <!-- Allianz symbol -->
  <g transform="translate(140, 15)" class="allianz-blue">
    <circle cx="15" cy="15" r="15" fill="none" stroke="#003781" stroke-width="3"/>
    <!-- Three bars inside circle -->
    <rect x="8" y="20" width="3" height="10" rx="1.5"/>
    <rect x="12" y="15" width="3" height="15" rx="1.5"/>
    <rect x="16" y="10" width="3" height="20" rx="1.5"/>
    <rect x="20" y="18" width="3" height="12" rx="1.5"/>
  </g>
</svg>
